<svg width="83" height="15" fill="none" xmlns="http://www.w3.org/2000/svg"><g clip-path="url(#clip0)"><path fill-rule="evenodd" clip-rule="evenodd" d="M3.022 7.01h1.7c1.363 0 1.995-.494 1.995-2.125 0-1.688-.593-2.2-1.975-2.2h-1.72V7.01zm-1.778 6.866a.603.603 0 01-.612-.588V1.338c0-.322.276-.588.612-.588h3.38c3.003 0 4.583 1.195 4.583 3.984 0 2.58-1.086 4.173-4.347 4.173H3.022v4.381a.604.604 0 01-.612.588H1.244zm10.867 0a.604.604 0 01-.612-.588V4.866c0-.322.277-.588.612-.588h.573c.356 0 .673.247.732.57l.138.644c.672-.834 1.561-1.384 2.609-1.384.098 0 .217 0 .316.018.138.02.237.115.237.304l-.257 1.555c-.02.19-.217.322-.435.285a2.828 2.828 0 00-.434-.038c-.771 0-1.265.228-1.838.702v6.354c0 .323-.277.588-.613.588h-1.028zm11.975-4.818c0 2.713-.494 3.434-1.798 3.434s-1.818-.702-1.818-3.414c0-2.751.493-3.415 1.798-3.415 1.305 0 1.818.645 1.818 3.395zm-6.008 0c0 3.605 1.62 5.065 4.21 5.065 2.588 0 4.209-1.441 4.209-5.045 0-3.605-1.64-5.046-4.23-5.046-2.588 0-4.189 1.403-4.189 5.026zm13.26 2.864h1.6c2.115 0 2.747-.986 2.747-4.723 0-3.527-.613-4.514-2.747-4.514h-1.6v9.237zm-1.779 1.954a.603.603 0 01-.612-.588V1.338c0-.322.276-.588.612-.588h3.34c3.596 0 5.375 1.65 5.375 6.544 0 4.685-1.483 6.582-5.277 6.582H29.56zm13.16-5.728c.118-2.01.651-2.504 1.66-2.504 1.245 0 1.6.645 1.62 2.504h-3.28zm-2.41.91c0 3.605 1.482 5.064 4.465 5.064 1.186 0 2.075-.284 2.845-.758.277-.19.356-.55.159-.816l-.375-.512c-.179-.266-.574-.341-.851-.17a3.268 3.268 0 01-1.798.512c-1.422 0-1.975-.493-2.055-2.693h5.276a.344.344 0 00.337-.342v-.36c0-3.51-1.266-4.951-3.952-4.951-2.51 0-4.052 1.385-4.052 5.026zm29.065 3.434c1.305 0 1.799-.721 1.799-3.434 0-2.75-.514-3.395-1.818-3.395-1.305 0-1.799.664-1.799 3.415 0 2.712.514 3.414 1.818 3.414zm0 1.631c-2.588 0-4.208-1.46-4.208-5.065 0-3.623 1.6-5.026 4.189-5.026 2.59 0 4.229 1.441 4.229 5.046 0 3.604-1.62 5.045-4.21 5.045zm6.205-.665a6.98 6.98 0 002.964.665c2.43 0 3.596-1.024 3.596-3.017 0-2.104-1.304-2.693-2.845-3.091-1.245-.323-1.601-.493-1.601-1.252 0-.664.434-.967 1.285-.967a4.29 4.29 0 011.56.265.607.607 0 00.771-.341l.218-.55c.119-.304-.04-.645-.356-.778-.652-.228-1.364-.36-2.371-.36-2.174 0-3.261 1.119-3.261 2.769 0 1.84 1.067 2.618 2.45 2.978 1.444.38 1.917.55 1.917 1.422 0 .76-.415 1.138-1.56 1.138-.712 0-1.365-.189-1.977-.493-.296-.151-.671-.038-.81.266l-.276.55a.598.598 0 00.296.796zM50.682 7.103v6.185c0 .322.276.588.612.588h1.028a.603.603 0 00.612-.588V7.103h-2.252zm4.96 6.185V7.103h2.253v6.185a.604.604 0 01-.614.588h-1.027a.604.604 0 01-.612-.588zm4.96-6.185v6.185c0 .322.276.588.612.588h1.028a.604.604 0 00.613-.588V7.103h-2.253zm2.253-1.152H50.682V4.136h12.173v1.814z" fill="#000"/></g><defs><clipPath id="clip0"><path fill="#fff" transform="translate(0 .438)" d="M0 0h83v13.989H0z"/></clipPath></defs></svg>